<?xml version="1.0" encoding="UTF-8"?>
<svg xmlns="http://www.w3.org/2000/svg" xmlns:xlink="http://www.w3.org/1999/xlink" width="94px" height="94px" viewBox="0 0 94 94" version="1.1">
<g id="surface1">
<path style=" stroke:none;fill-rule:nonzero;fill:rgb(98.431373%,72.941176%,13.333333%);fill-opacity:1;" d="M 72.527344 38.914062 C 72.527344 45.933594 66.835938 51.625 59.816406 51.625 C 52.792969 51.625 47.101562 45.933594 47.101562 38.914062 C 47.101562 31.890625 52.792969 26.199219 59.816406 26.199219 C 66.828125 26.199219 72.527344 31.890625 72.527344 38.914062 Z M 72.527344 38.914062 "/>
<path style=" stroke:none;fill-rule:nonzero;fill:rgb(100%,100%,100%);fill-opacity:1;" d="M 77.339844 53.921875 C 77.339844 46.402344 71.34375 40.316406 63.945312 40.316406 C 61.808594 40.316406 59.789062 40.839844 57.996094 41.75 C 55.132812 38.085938 50.71875 35.738281 45.761719 35.738281 C 38.839844 35.738281 32.972656 40.308594 30.917969 46.640625 C 29.484375 45.925781 27.878906 45.523438 26.171875 45.523438 C 20.195312 45.523438 15.339844 50.453125 15.339844 56.527344 C 15.339844 62.605469 20.1875 67.535156 26.171875 67.535156 L 64.589844 67.535156 L 64.589844 67.5 C 71.683594 67.148438 77.339844 61.210938 77.339844 53.921875 Z M 77.339844 53.921875 "/>
<path style=" stroke:none;fill-rule:nonzero;fill:rgb(12.941176%,12.156863%,11.764706%);fill-opacity:1;" d="M 73.21875 27.007812 C 73.621094 27.007812 74.035156 26.851562 74.335938 26.539062 L 77.523438 23.351562 C 78.148438 22.730469 78.148438 21.726562 77.523438 21.105469 C 76.898438 20.480469 75.898438 20.480469 75.273438 21.105469 L 72.089844 24.289062 C 71.464844 24.914062 71.464844 25.914062 72.089844 26.539062 C 72.398438 26.851562 72.8125 27.007812 73.21875 27.007812 Z M 45.199219 26.546875 C 45.511719 26.859375 45.917969 27.015625 46.320312 27.015625 C 46.722656 27.015625 47.136719 26.859375 47.441406 26.546875 C 48.066406 25.921875 48.066406 24.921875 47.441406 24.296875 L 44.246094 21.105469 C 43.621094 20.480469 42.621094 20.480469 41.996094 21.105469 C 41.371094 21.726562 41.371094 22.730469 41.996094 23.351562 Z M 59.804688 21.425781 C 60.6875 21.425781 61.394531 20.710938 61.394531 19.835938 L 61.394531 15.0625 C 61.394531 14.183594 60.679688 13.476562 59.804688 13.476562 C 58.925781 13.476562 58.21875 14.191406 58.21875 15.0625 L 58.21875 19.835938 C 58.21875 20.710938 58.933594 21.425781 59.804688 21.425781 Z M 83.699219 37.324219 L 78.890625 37.324219 C 78.007812 37.324219 77.300781 38.039062 77.300781 38.914062 C 77.300781 39.792969 78.007812 40.5 78.890625 40.5 L 83.699219 40.5 C 84.582031 40.5 85.289062 39.785156 85.289062 38.914062 C 85.289062 38.039062 84.582031 37.324219 83.699219 37.324219 Z M 73.667969 42.375 C 73.953125 41.261719 74.117188 40.105469 74.117188 38.914062 C 74.117188 31.027344 67.699219 24.609375 59.804688 24.609375 C 53.589844 24.609375 48.304688 28.605469 46.339844 34.15625 C 46.144531 34.148438 45.953125 34.140625 45.761719 34.140625 C 38.875 34.140625 32.742188 38.261719 30.007812 44.550781 C 28.769531 44.136719 27.484375 43.925781 26.171875 43.925781 C 19.324219 43.925781 13.75 49.570312 13.75 56.519531 C 13.75 63.460938 19.324219 69.113281 26.171875 69.113281 L 64.589844 69.113281 C 64.726562 69.113281 64.863281 69.09375 64.992188 69.058594 C 72.832031 68.507812 78.917969 61.917969 78.917969 53.921875 C 78.925781 49.304688 76.878906 45.164062 73.667969 42.375 Z M 59.804688 27.785156 C 65.9375 27.785156 70.929688 32.78125 70.929688 38.914062 C 70.929688 39.425781 70.894531 39.941406 70.820312 40.4375 C 68.757812 39.351562 66.425781 38.730469 63.945312 38.730469 C 62.046875 38.730469 60.199219 39.085938 58.4375 39.804688 C 56.050781 37.160156 52.96875 35.359375 49.578125 34.578125 C 51.277344 30.597656 55.207031 27.785156 59.804688 27.785156 Z M 64.515625 65.910156 C 64.433594 65.910156 64.351562 65.929688 64.265625 65.9375 L 26.171875 65.9375 C 21.078125 65.9375 16.9375 61.714844 16.9375 56.519531 C 16.9375 51.332031 21.078125 47.109375 26.171875 47.109375 C 27.566406 47.109375 28.925781 47.429688 30.210938 48.066406 C 30.625 48.265625 31.109375 48.285156 31.53125 48.101562 C 31.953125 47.925781 32.285156 47.570312 32.433594 47.128906 C 34.339844 41.261719 39.703125 37.316406 45.769531 37.316406 C 50.066406 37.316406 54.066406 39.289062 56.757812 42.722656 C 57.226562 43.320312 58.050781 43.503906 58.722656 43.164062 C 60.375 42.328125 62.136719 41.90625 63.953125 41.90625 C 70.464844 41.90625 75.761719 47.292969 75.761719 53.921875 C 75.75 60.339844 70.8125 65.597656 64.515625 65.910156 Z M 64.515625 65.910156 "/>
</g>
</svg>
