<?xml version="1.0" encoding="UTF-8"?>
<svg xmlns="http://www.w3.org/2000/svg" xmlns:xlink="http://www.w3.org/1999/xlink" width="94px" height="94px" viewBox="0 0 94 94" version="1.1">
<g id="surface1">
<path style=" stroke:none;fill-rule:nonzero;fill:rgb(100%,100%,100%);fill-opacity:1;" d="M 38.601562 47.78125 C 35.25 47.78125 32.265625 49.394531 30.328125 51.910156 C 29.109375 50.222656 27.152344 49.128906 24.960938 49.128906 C 21.628906 49.128906 18.875 51.625 18.339844 54.914062 L 15.769531 54.914062 C 11.84375 54.914062 8.664062 58.199219 8.664062 62.257812 C 8.664062 66.3125 11.851562 69.160156 15.769531 69.160156 L 38.601562 69.160156 C 44.429688 69.160156 49.15625 64.71875 49.15625 58.695312 C 49.15625 52.664062 44.429688 47.78125 38.601562 47.78125 Z M 38.601562 47.78125 "/>
<path style=" stroke:none;fill-rule:nonzero;fill:rgb(98.431373%,72.941176%,13.333333%);fill-opacity:1;" d="M 62.679688 55.621094 C 55.507812 55.621094 49.699219 49.828125 49.699219 42.6875 C 49.699219 35.542969 55.507812 29.75 62.679688 29.75 C 64.53125 29.75 66.296875 30.144531 67.894531 30.84375 C 64.761719 27.585938 60.367188 25.546875 55.492188 25.546875 C 46 25.546875 38.296875 33.222656 38.296875 42.6875 C 38.296875 52.148438 45.992188 59.824219 55.492188 59.824219 C 60.375 59.824219 64.773438 57.785156 67.894531 54.527344 C 66.296875 55.226562 64.53125 55.621094 62.679688 55.621094 Z M 62.679688 55.621094 "/>
<path style=" stroke:none;fill-rule:nonzero;fill:rgb(12.941176%,12.156863%,11.764706%);fill-opacity:1;" d="M 67.269531 53.105469 C 65.808594 53.746094 64.265625 54.070312 62.679688 54.070312 C 56.382812 54.070312 51.257812 48.964844 51.257812 42.6875 C 51.257812 36.40625 56.382812 31.304688 62.679688 31.304688 C 64.265625 31.304688 65.808594 31.625 67.257812 32.265625 C 67.9375 32.570312 68.738281 32.339844 69.160156 31.734375 C 69.582031 31.128906 69.519531 30.300781 69.003906 29.761719 C 65.433594 26.035156 60.621094 23.988281 55.480469 23.988281 C 45.144531 23.988281 36.738281 32.375 36.738281 42.6875 C 36.738281 43.933594 36.867188 45.15625 37.09375 46.328125 C 34.542969 46.652344 32.183594 47.78125 30.3125 49.597656 C 28.832031 48.292969 26.960938 47.578125 24.960938 47.578125 C 21.351562 47.578125 18.230469 49.945312 17.121094 53.363281 L 15.769531 53.363281 C 10.996094 53.363281 7.105469 57.355469 7.105469 62.265625 C 7.105469 67.175781 10.988281 70.71875 15.769531 70.71875 L 38.601562 70.71875 C 44.613281 70.71875 49.597656 66.636719 50.542969 60.722656 C 52.121094 61.15625 53.773438 61.394531 55.492188 61.394531 C 60.640625 61.394531 65.441406 59.347656 69.011719 55.621094 C 69.527344 55.085938 69.589844 54.261719 69.167969 53.644531 C 68.738281 53.03125 67.949219 52.800781 67.269531 53.105469 Z M 38.601562 67.597656 L 15.78125 67.597656 C 12.722656 67.597656 10.234375 65.441406 10.234375 62.257812 C 10.234375 59.070312 12.722656 56.472656 15.78125 56.472656 L 18.351562 56.472656 C 19.113281 56.472656 19.765625 55.921875 19.882812 55.167969 C 20.304688 52.570312 22.445312 50.691406 24.960938 50.691406 C 26.585938 50.691406 28.082031 51.46875 29.070312 52.828125 C 29.355469 53.222656 29.816406 53.460938 30.3125 53.472656 C 30.816406 53.472656 31.265625 53.25 31.570312 52.867188 C 33.167969 50.792969 35.480469 49.550781 37.984375 49.378906 C 39.730469 53.894531 43.179688 57.574219 47.550781 59.621094 C 47.109375 64.339844 43.265625 67.597656 38.601562 67.597656 Z M 55.480469 58.261719 C 46.863281 58.261719 39.847656 51.269531 39.847656 42.683594 C 39.847656 34.09375 46.863281 27.109375 55.480469 27.109375 C 57.539062 27.109375 59.53125 27.503906 61.375 28.246094 C 53.96875 28.90625 48.148438 35.128906 48.148438 42.683594 C 48.148438 50.242188 53.96875 56.464844 61.375 57.125 C 59.53125 57.867188 57.539062 58.261719 55.480469 58.261719 Z M 55.480469 58.261719 "/>
<path style=" stroke:none;fill-rule:nonzero;fill:rgb(100%,100%,100%);fill-opacity:1;" d="M 81.957031 39.691406 C 81.269531 39.691406 80.617188 39.859375 80.027344 40.132812 C 79.726562 38.058594 77.953125 36.453125 75.789062 36.453125 C 73.410156 36.453125 71.492188 38.378906 71.492188 40.75 C 71.492188 40.988281 71.527344 41.207031 71.554688 41.4375 L 71.492188 41.4375 C 69.5 41.4375 67.875 43.054688 67.875 45.054688 C 67.875 47.054688 69.492188 48.917969 71.492188 48.917969 L 81.957031 48.917969 C 84.5 48.917969 86.5625 46.851562 86.5625 44.308594 C 86.5625 41.757812 84.5 39.691406 81.957031 39.691406 Z M 81.957031 39.691406 "/>
<path style=" stroke:none;fill-rule:nonzero;fill:rgb(12.941176%,12.156863%,11.764706%);fill-opacity:1;" d="M 81.945312 38.132812 C 81.644531 38.132812 81.332031 38.160156 81.027344 38.207031 C 80.074219 36.230469 78.046875 34.890625 75.777344 34.890625 C 72.765625 34.890625 70.28125 37.175781 69.957031 40.105469 C 67.847656 40.757812 66.3125 42.730469 66.3125 45.054688 C 66.3125 47.992188 68.683594 50.480469 71.480469 50.480469 L 81.945312 50.480469 C 85.34375 50.480469 88.117188 47.707031 88.117188 44.308594 C 88.117188 40.90625 85.34375 38.132812 81.945312 38.132812 Z M 81.945312 47.359375 L 71.480469 47.359375 C 70.40625 47.359375 69.425781 46.257812 69.425781 45.054688 C 69.425781 43.925781 70.34375 42.996094 71.546875 42.996094 C 72.003906 42.996094 72.4375 42.796875 72.730469 42.445312 C 73.023438 42.097656 73.152344 41.640625 73.078125 41.1875 C 73.050781 41.03125 73.035156 40.878906 73.035156 40.75 C 73.035156 39.234375 74.265625 38.003906 75.777344 38.003906 C 77.117188 38.003906 78.273438 39.015625 78.476562 40.355469 C 78.550781 40.839844 78.84375 41.261719 79.277344 41.5 C 79.707031 41.738281 80.230469 41.75 80.671875 41.546875 C 81.085938 41.355469 81.515625 41.253906 81.945312 41.253906 C 83.625 41.253906 85.003906 42.621094 85.003906 44.308594 C 84.996094 45.992188 83.625 47.359375 81.945312 47.359375 Z M 81.945312 47.359375 "/>
</g>
</svg>
