<!DOCTYPE svg PUBLIC "-//W3C//DTD SVG 1.1//EN" "http://www.w3.org/Graphics/SVG/1.1/DTD/svg11.dtd">
<!-- Uploaded to: SVG Repo, www.svgrepo.com, Transformed by: SVG Repo Mixer Tools -->
<svg width="94px" height="94px" viewBox="0 0 1024 1024" class="icon" version="1.1" xmlns="http://www.w3.org/2000/svg" fill="#000000">
<g id="SVGRepo_bgCarrier" stroke-width="0"/>
<g id="SVGRepo_tracerCarrier" stroke-linecap="round" stroke-linejoin="round"/>
<g id="SVGRepo_iconCarrier">
<path d="M761.2 416.4c-21.3 0-41.8 4-60.8 11.2-9.8-113.2-99.4-201.9-208.5-201.9-105.8 0-193.3 83.4-207.4 191.6-5.9-0.6-11.9-1-18-1C167.3 416.3 87 501.7 87 607c0 105.3 78.2 191.1 177.4 191.1 1.7 0 8.6-0.3 11.5-0.5h-1.3v-0.2c3.4 0 3.1 0.1 1.3 0.2l446.5 0.6c13 0 24.8-0.6 38.8-0.6 99.2 0 179.5-85.4 179.5-190.7 0-105.1-80.4-190.5-179.5-190.5z" fill="#e7e7e4"/>
<path d="M108.1 517.2c-13.5 26.8-21.2 57.4-21.2 89.9 0 105.3 78.2 191.1 177.4 191.1 1.7 0 8.6-0.3 11.5-0.5h-1.3v-0.2c3.4 0 3.1 0.1 1.3 0.2l446.5 0.6c6 0 11.7-0.1 17.4-0.2l1.7-2.4c-369.7-0.1-568.5-40.8-633.3-278.5z" fill="#e7e7e4"/>
<path d="M722.4 820.1l-445.8-0.6c-1.1 0.1-2.6 0.1-4.1 0.2-3.3 0.1-6.9 0.3-8.2 0.3-53.9 0-104.3-22.4-141.9-63.1-36.9-40-57.3-93.2-57.3-149.8 0-117.1 90.2-212.3 201.1-212.4C289.6 284.7 383.4 204 491.8 204c58.3 0 113.9 23 156.7 64.7 36 35.1 60.3 80.8 69.8 130.8 14-3.2 28.3-4.8 42.7-4.8 33.4 0 66.6 8.8 95.8 25.5 10.4 6 14 19.2 8.1 29.7-6 10.4-19.2 14-29.7 8.1-22.7-13-48.3-19.8-74.2-19.8-18.2 0-36 3.3-53 9.8l-26.9 10.3-2.5-28.7c-9-103.8-89.3-182-186.9-182-93.1 0-173 74.2-185.9 172.7l-2.7 21-21.1-2.2c-5.2-0.6-10.5-0.8-15.7-0.8-87 0-157.8 75.8-157.8 168.9 0 89.2 63.7 162.5 144.1 168.9l21.7-0.2h2.7c0.8 0 1.7 0.1 2.4 0.2l442.7 0.6c6.2 0 12.1-0.1 18.2-0.3 6.5-0.1 13.2-0.3 20.6-0.3 74.5 0 139.5-56.6 154.5-134.6 2.3-11.8 13.7-19.5 25.5-17.2 11.8 2.3 19.5 13.7 17.2 25.5-19 98.4-101.9 169.9-197.3 169.9-7 0-13.4 0.1-19.7 0.3-5.9-0.1-12.2 0.1-18.7 0.1z" fill="#878787"/>
</g>
</svg>