<?xml version="1.0" encoding="UTF-8"?>
<svg xmlns="http://www.w3.org/2000/svg" xmlns:xlink="http://www.w3.org/1999/xlink" width="97px" height="97px" viewBox="0 0 97 97" version="1.1">
<defs>
<filter id="alpha" filterUnits="objectBoundingBox" x="0%" y="0%" width="100%" height="100%">
  <feColorMatrix type="matrix" in="SourceGraphic" values="0 0 0 0 1 0 0 0 0 1 0 0 0 0 1 0 0 0 1 0"/>
</filter>
<mask id="mask0">
  <g filter="url(#alpha)">
<rect x="0" y="0" width="97" height="97" style="fill:rgb(0%,0%,0%);fill-opacity:0.101961;stroke:none;"/>
  </g>
</mask>
<clipPath id="clip1">
  <rect x="0" y="0" width="97" height="97"/>
</clipPath>
<g id="surface5" clip-path="url(#clip1)">
<path style=" stroke:none;fill-rule:nonzero;fill:rgb(0%,0%,0%);fill-opacity:1;" d="M 80.289062 37.324219 C 81.878906 40.023438 82.855469 43.125 82.855469 46.480469 C 82.855469 56.507812 74.695312 64.667969 64.667969 64.667969 L 8.082031 64.667969 C 7.132812 64.667969 6.207031 64.566406 5.308594 64.386719 C 7.527344 69.304688 12.453125 72.75 18.1875 72.75 L 74.769531 72.75 C 84.800781 72.75 92.957031 64.589844 92.957031 54.5625 C 92.957031 46.46875 87.609375 39.675781 80.289062 37.324219 Z M 80.289062 37.324219 "/>
</g>
<mask id="mask1">
  <g filter="url(#alpha)">
<rect x="0" y="0" width="97" height="97" style="fill:rgb(0%,0%,0%);fill-opacity:0.2;stroke:none;"/>
  </g>
</mask>
<clipPath id="clip2">
  <rect x="0" y="0" width="97" height="97"/>
</clipPath>
<g id="surface8" clip-path="url(#clip2)">
<path style=" stroke:none;fill-rule:nonzero;fill:rgb(100%,100%,100%);fill-opacity:1;" d="M 70.164062 32.886719 C 70.152344 32.859375 70.132812 32.832031 70.121094 32.800781 C 69.914062 32.890625 69.703125 32.972656 69.496094 33.066406 C 69.722656 33.011719 69.941406 32.9375 70.164062 32.886719 Z M 70.164062 32.886719 "/>
</g>
<linearGradient id="linear0" gradientUnits="userSpaceOnUse" x1="2.415063" y1="8.333489" x2="24.464451" y2="18.615288" gradientTransform="matrix(4.041667,0,0,4.041667,0,0)">
<stop offset="0" style="stop-color:rgb(100%,100%,100%);stop-opacity:0.2;"/>
<stop offset="1" style="stop-color:rgb(100%,100%,100%);stop-opacity:0;"/>
</linearGradient>
</defs>
<g id="surface1">
<path style=" stroke:none;fill-rule:nonzero;fill:rgb(18.823529%,23.529412%,25.882353%);fill-opacity:1;" d="M 74.769531 32.332031 C 74.625 32.332031 74.484375 32.367188 74.339844 32.367188 C 69.480469 20.226562 57.699219 12.125 44.457031 12.125 C 27.648438 12.125 13.804688 24.914062 12.332031 41.46875 C 5.183594 43.921875 0 50.632812 0 58.605469 C 0 68.632812 8.160156 76.792969 18.1875 76.792969 L 74.769531 76.792969 C 87.027344 76.792969 97 66.820312 97 54.5625 C 97 42.304688 87.027344 32.332031 74.769531 32.332031 Z M 74.769531 32.332031 "/>
<path style=" stroke:none;fill-rule:nonzero;fill:rgb(94.901961%,94.901961%,94.509804%);fill-opacity:1;" d="M 74.769531 72.75 L 18.1875 72.75 C 10.386719 72.75 4.042969 66.402344 4.042969 58.605469 C 4.042969 50.804688 10.386719 44.457031 18.1875 44.457031 C 19.304688 44.457031 20.207031 43.554688 20.207031 42.4375 C 20.207031 41.320312 19.304688 40.417969 18.1875 40.417969 C 17.601562 40.417969 17.046875 40.535156 16.476562 40.589844 C 18.320312 26.71875 30.171875 16.167969 44.457031 16.167969 C 55.679688 16.167969 65.6875 22.824219 70.164062 32.886719 C 67.039062 33.558594 64.03125 34.847656 61.441406 36.773438 C 60.542969 37.441406 60.359375 38.707031 61.023438 39.601562 C 61.6875 40.492188 62.949219 40.679688 63.851562 40.019531 C 67.011719 37.667969 70.890625 36.375 74.769531 36.375 C 84.800781 36.375 92.957031 44.535156 92.957031 54.5625 C 92.957031 64.589844 84.800781 72.75 74.769531 72.75 Z M 74.769531 72.75 "/>
<use xlink:href="#surface5" mask="url(#mask0)"/>
<use xlink:href="#surface8" mask="url(#mask1)"/>
<path style=" stroke:none;fill-rule:nonzero;fill:rgb(18.823529%,23.529412%,25.882353%);fill-opacity:1;" d="M 78.714844 42.796875 C 77.191406 41.738281 75.292969 40.417969 71.753906 40.417969 C 68.214844 40.417969 66.3125 41.738281 64.785156 42.796875 C 63.453125 43.726562 62.398438 44.457031 60.125 44.457031 C 57.855469 44.457031 56.800781 43.726562 55.46875 42.796875 C 53.941406 41.738281 52.039062 40.417969 48.5 40.417969 C 47.382812 40.417969 46.480469 41.320312 46.480469 42.4375 C 46.480469 43.554688 47.382812 44.457031 48.5 44.457031 C 50.773438 44.457031 51.828125 45.191406 53.160156 46.117188 C 54.6875 47.179688 56.585938 48.5 60.125 48.5 C 63.667969 48.5 65.566406 47.179688 67.09375 46.117188 C 68.425781 45.191406 69.480469 44.457031 71.753906 44.457031 C 74.023438 44.457031 75.074219 45.191406 76.40625 46.117188 C 77.933594 47.179688 79.832031 48.5 83.371094 48.5 C 86.90625 48.5 88.804688 47.179688 90.328125 46.117188 C 91.660156 45.191406 92.710938 44.457031 94.980469 44.457031 C 96.097656 44.457031 97 43.554688 97 42.4375 C 97 41.320312 96.097656 40.417969 94.980469 40.417969 C 91.441406 40.417969 89.542969 41.738281 88.019531 42.800781 C 86.691406 43.726562 85.640625 44.457031 83.371094 44.457031 C 81.101562 44.457031 80.046875 43.726562 78.714844 42.796875 Z M 78.714844 42.796875 "/>
<path style=" stroke:none;fill-rule:nonzero;fill:rgb(18.823529%,23.529412%,25.882353%);fill-opacity:1;" d="M 94.980469 76.792969 C 91.441406 76.792969 89.542969 78.113281 88.019531 79.175781 C 86.691406 80.101562 85.640625 80.832031 83.371094 80.832031 C 81.101562 80.832031 80.046875 80.101562 78.714844 79.171875 C 77.191406 78.113281 75.292969 76.792969 71.753906 76.792969 C 68.214844 76.792969 66.3125 78.113281 64.785156 79.171875 C 63.453125 80.101562 62.398438 80.832031 60.125 80.832031 C 57.855469 80.832031 56.800781 80.101562 55.46875 79.171875 C 53.941406 78.113281 52.039062 76.792969 48.5 76.792969 C 47.382812 76.792969 46.480469 77.695312 46.480469 78.8125 C 46.480469 79.929688 47.382812 80.832031 48.5 80.832031 C 50.773438 80.832031 51.828125 81.566406 53.160156 82.492188 C 54.6875 83.554688 56.585938 84.875 60.125 84.875 C 63.667969 84.875 65.566406 83.554688 67.09375 82.492188 C 68.425781 81.566406 69.480469 80.832031 71.753906 80.832031 C 74.023438 80.832031 75.074219 81.566406 76.40625 82.492188 C 77.933594 83.554688 79.832031 84.875 83.371094 84.875 C 86.90625 84.875 88.804688 83.554688 90.328125 82.492188 C 91.660156 81.566406 92.710938 80.832031 94.980469 80.832031 C 96.097656 80.832031 97 79.929688 97 78.8125 C 97 77.695312 96.097656 76.792969 94.980469 76.792969 Z M 94.980469 76.792969 "/>
<path style=" stroke:none;fill-rule:nonzero;fill:rgb(18.823529%,23.529412%,25.882353%);fill-opacity:1;" d="M 94.980469 64.667969 C 91.441406 64.667969 89.542969 65.988281 88.019531 67.050781 C 86.691406 67.976562 85.640625 68.707031 83.371094 68.707031 C 82.253906 68.707031 81.351562 69.613281 81.351562 70.730469 C 81.351562 71.847656 82.253906 72.75 83.371094 72.75 C 86.90625 72.75 88.804688 71.429688 90.328125 70.367188 C 91.660156 69.441406 92.710938 68.707031 94.980469 68.707031 C 96.097656 68.707031 97 67.804688 97 66.6875 C 97 65.570312 96.097656 64.667969 94.980469 64.667969 Z M 94.980469 64.667969 "/>
<path style=" stroke:none;fill-rule:nonzero;fill:rgb(18.823529%,23.529412%,25.882353%);fill-opacity:1;" d="M 53.160156 70.367188 C 54.6875 71.429688 56.585938 72.75 60.125 72.75 C 63.667969 72.75 65.566406 71.429688 67.09375 70.367188 C 68.425781 69.441406 69.480469 68.707031 71.753906 68.707031 C 72.871094 68.707031 73.773438 67.804688 73.773438 66.6875 C 73.773438 65.570312 72.871094 64.667969 71.753906 64.667969 C 68.214844 64.667969 66.3125 65.988281 64.785156 67.046875 C 63.453125 67.976562 62.398438 68.707031 60.125 68.707031 C 57.855469 68.707031 56.800781 67.976562 55.46875 67.046875 C 53.941406 65.988281 52.039062 64.667969 48.5 64.667969 C 45.007812 64.667969 43.0625 65.910156 41.347656 67.003906 C 39.863281 67.957031 38.6875 68.707031 36.375 68.707031 C 35.257812 68.707031 34.355469 69.613281 34.355469 70.730469 C 34.355469 71.847656 35.257812 72.75 36.375 72.75 C 39.867188 72.75 41.8125 71.507812 43.527344 70.410156 C 45.011719 69.460938 46.1875 68.707031 48.5 68.707031 C 50.773438 68.707031 51.828125 69.441406 53.160156 70.367188 Z M 53.160156 70.367188 "/>
<path style=" stroke:none;fill-rule:nonzero;fill:rgb(18.823529%,23.529412%,25.882353%);fill-opacity:1;" d="M 94.980469 52.542969 C 91.441406 52.542969 89.542969 53.863281 88.019531 54.925781 C 86.691406 55.851562 85.640625 56.582031 83.371094 56.582031 C 81.101562 56.582031 80.046875 55.851562 78.714844 54.921875 C 77.191406 53.863281 75.292969 52.542969 71.753906 52.542969 C 70.636719 52.542969 69.734375 53.445312 69.734375 54.5625 C 69.734375 55.679688 70.636719 56.582031 71.753906 56.582031 C 74.023438 56.582031 75.074219 57.316406 76.40625 58.242188 C 77.933594 59.304688 79.832031 60.625 83.371094 60.625 C 86.90625 60.625 88.804688 59.304688 90.328125 58.242188 C 91.660156 57.316406 92.710938 56.582031 94.980469 56.582031 C 96.097656 56.582031 97 55.679688 97 54.5625 C 97 53.445312 96.097656 52.542969 94.980469 52.542969 Z M 94.980469 52.542969 "/>
<path style=" stroke:none;fill-rule:nonzero;fill:url(#linear0);" d="M 94.5625 44.492188 C 94.710938 44.488281 94.820312 44.457031 94.980469 44.457031 C 96.097656 44.457031 97 43.554688 97 42.4375 C 97 41.320312 96.097656 40.417969 94.980469 40.417969 C 93.886719 40.417969 92.992188 40.570312 92.175781 40.773438 C 88.097656 35.640625 81.820312 32.332031 74.769531 32.332031 C 74.625 32.332031 74.484375 32.367188 74.339844 32.367188 C 69.480469 20.226562 57.699219 12.125 44.457031 12.125 C 27.648438 12.125 13.804688 24.914062 12.332031 41.46875 C 5.183594 43.921875 0 50.632812 0 58.605469 C 0 68.632812 8.160156 76.792969 18.1875 76.792969 L 74.769531 76.792969 C 80.910156 76.792969 86.476562 74.289062 90.503906 70.25 C 91.753906 69.382812 92.8125 68.707031 94.980469 68.707031 C 96.097656 68.707031 97 67.804688 97 66.6875 C 97 65.570312 96.097656 64.667969 94.980469 64.667969 C 94.808594 64.667969 94.6875 64.703125 94.527344 64.710938 C 96.097656 61.664062 97 58.21875 97 54.5625 C 97 50.9375 96.109375 47.519531 94.5625 44.492188 Z M 60.125 80.832031 C 57.855469 80.832031 56.800781 80.101562 55.46875 79.171875 C 53.941406 78.113281 52.039062 76.792969 48.5 76.792969 C 47.382812 76.792969 46.480469 77.695312 46.480469 78.8125 C 46.480469 79.929688 47.382812 80.832031 48.5 80.832031 C 50.773438 80.832031 51.828125 81.566406 53.160156 82.492188 C 54.6875 83.554688 56.585938 84.875 60.125 84.875 C 63.667969 84.875 65.566406 83.554688 67.09375 82.492188 C 68.425781 81.566406 69.480469 80.832031 71.753906 80.832031 C 74.023438 80.832031 75.074219 81.566406 76.40625 82.492188 C 77.933594 83.554688 79.832031 84.875 83.371094 84.875 C 86.90625 84.875 88.804688 83.554688 90.328125 82.492188 C 91.660156 81.566406 92.710938 80.832031 94.980469 80.832031 C 96.097656 80.832031 97 79.929688 97 78.8125 C 97 77.695312 96.097656 76.792969 94.980469 76.792969 C 91.441406 76.792969 89.542969 78.113281 88.019531 79.175781 C 86.691406 80.101562 85.640625 80.832031 83.371094 80.832031 C 81.101562 80.832031 80.046875 80.101562 78.714844 79.171875 C 77.191406 78.113281 75.292969 76.792969 71.753906 76.792969 C 68.214844 76.792969 66.3125 78.113281 64.785156 79.171875 C 63.453125 80.101562 62.398438 80.832031 60.125 80.832031 Z M 60.125 80.832031 "/>
</g>
</svg>
