<?xml version="1.0" encoding="UTF-8"?>
<svg xmlns="http://www.w3.org/2000/svg" xmlns:xlink="http://www.w3.org/1999/xlink" width="94px" height="94px" viewBox="0 0 94 94" version="1.1">
<defs>
<radialGradient id="radial0" gradientUnits="userSpaceOnUse" cx="-4835.7" cy="-854.62" fx="-4835.7" fy="-854.62" r="131.7" gradientTransform="matrix(0.606385,-0.0000000364288,0.0000000372319,0.619712,2979.254822,576.621545)">
<stop offset="0" style="stop-color:rgb(100%,99.215686%,26.666667%);stop-opacity:1;"/>
<stop offset="1" style="stop-color:rgb(100%,83.137255%,16.078431%);stop-opacity:1;"/>
</radialGradient>
<radialGradient id="radial1" gradientUnits="userSpaceOnUse" cx="-5654.7" cy="2526.4" fx="-5654.7" fy="2526.4" r="474.77" gradientTransform="matrix(0.0989954,0,0,0.0989988,606.779004,-203.111936)">
<stop offset="0" style="stop-color:rgb(100%,83.137255%,16.078431%);stop-opacity:0;"/>
<stop offset="0.42553" style="stop-color:rgb(100%,83.137255%,16.078431%);stop-opacity:0;"/>
<stop offset="0.73004" style="stop-color:rgb(100%,83.137255%,16.078431%);stop-opacity:1;"/>
<stop offset="1" style="stop-color:rgb(100%,83.137255%,16.078431%);stop-opacity:1;"/>
</radialGradient>
</defs>
<g id="surface1">
<path style=" stroke:none;fill-rule:nonzero;fill:url(#radial0);" d="M 58.441406 1.421875 C 52.292969 6.609375 50.023438 11.738281 47.84375 17.183594 C 42.148438 12.441406 36.488281 7.796875 34.117188 1.796875 C 31.382812 9.363281 31.980469 14.945312 32.816406 20.75 C 25.511719 19.492188 18.289062 18.296875 13.234375 14.285156 C 14.648438 22.207031 17.957031 26.738281 21.582031 31.347656 C 14.628906 33.910156 7.78125 36.492188 1.394531 35.546875 C 6.582031 41.699219 11.710938 43.964844 17.15625 46.144531 C 12.414062 51.839844 7.769531 57.5 1.769531 59.875 C 9.335938 62.609375 14.917969 62.007812 20.722656 61.171875 C 19.464844 68.476562 18.273438 75.699219 14.261719 80.753906 C 22.183594 79.339844 26.710938 76.027344 31.320312 72.402344 C 33.882812 79.359375 36.460938 86.207031 35.515625 92.59375 C 41.667969 87.40625 43.9375 82.277344 46.117188 76.832031 C 51.8125 81.574219 57.472656 86.21875 59.847656 92.21875 C 62.582031 84.652344 61.980469 79.070312 61.148438 73.265625 C 68.449219 74.523438 75.671875 75.71875 80.730469 79.730469 C 79.3125 71.808594 76.003906 67.277344 72.375 62.667969 C 79.332031 60.105469 86.183594 57.523438 92.566406 58.46875 C 87.382812 52.320312 82.25 50.050781 76.808594 47.871094 C 81.546875 42.175781 86.1875 36.515625 92.191406 34.140625 C 84.625 31.40625 79.042969 32.007812 73.238281 32.84375 C 74.496094 25.539062 75.691406 18.316406 79.703125 13.261719 C 71.78125 14.675781 67.25 17.988281 62.640625 21.613281 C 60.078125 14.65625 57.496094 7.808594 58.441406 1.421875 Z M 58.441406 1.421875 "/>
<path style=" stroke:none;fill-rule:nonzero;fill:url(#radial1);" d="M 46.257812 0.00390625 C 41.660156 6.609375 40.796875 12.152344 40.097656 17.976562 C 33.371094 14.871094 26.703125 11.847656 22.855469 6.664062 C 22.171875 14.683594 24.199219 19.917969 26.507812 25.308594 C 19.125 25.984375 11.839844 26.699219 5.917969 24.136719 C 9.335938 31.417969 13.707031 34.9375 18.402344 38.453125 C 12.347656 42.726562 6.398438 46.992188 -0.015625 47.734375 C 6.589844 52.332031 12.132812 53.195312 17.957031 53.890625 C 14.851562 60.621094 11.828125 67.289062 6.644531 71.136719 C 14.664062 71.816406 19.898438 69.792969 25.289062 67.480469 C 25.964844 74.863281 26.679688 82.148438 24.113281 88.074219 C 31.394531 84.65625 34.917969 80.285156 38.433594 75.589844 C 42.707031 81.644531 46.972656 87.59375 47.714844 94.007812 C 52.3125 87.402344 53.175781 81.859375 53.871094 76.035156 C 60.601562 79.140625 67.269531 82.164062 71.117188 87.347656 C 71.796875 79.328125 69.773438 74.09375 67.460938 68.703125 C 74.84375 68.027344 82.128906 67.308594 88.054688 69.875 C 84.636719 62.59375 80.265625 59.074219 75.570312 55.558594 C 81.625 51.285156 87.570312 47.019531 93.984375 46.277344 C 87.382812 41.679688 81.839844 40.816406 76.015625 40.121094 C 79.121094 33.390625 82.144531 26.722656 87.328125 22.875 C 79.308594 22.195312 74.074219 24.21875 68.683594 26.53125 C 68.007812 19.148438 67.292969 11.863281 69.855469 5.9375 C 62.574219 9.355469 59.054688 13.726562 55.539062 18.421875 C 51.265625 12.367188 47 6.417969 46.257812 0.00390625 Z M 46.984375 22.652344 C 60.433594 22.652344 71.339844 33.554688 71.339844 47.003906 C 71.339844 60.457031 60.433594 71.359375 46.984375 71.359375 C 33.535156 71.359375 22.632812 60.457031 22.632812 47.003906 C 22.632812 33.554688 33.535156 22.652344 46.984375 22.652344 Z M 46.984375 22.652344 "/>
</g>
</svg>
